<svg xmlns="http://www.w3.org/2000/svg" width="235" height="171" viewBox="0 0 235 171">
  <defs>
    <style>
      .cls-1 {
        fill: #efdbfe;
        fill-rule: evenodd;
      }
    </style>
  </defs>
  <path class="cls-1" d="M301.968,117.24c-12.623,20.118-34.31,34.527-56.782,42.424-12.381,4.354-26.483,9.186-39.269,6.231-9.059-2.092-16.963,3.42-25.535,2.416-19.15-2.24-38.4,4.008-58.493.965-10.872-1.649-33.836-3.719-40.792-15.584-6.259-10.686,2.612-22.754,1.593-33.518-1.549-16.3-33.361-34.659-45.506-43.161C17.754,63.4,9.616,47.265,2.6,25.28-3.415,6.429,1.237-9.988,15.748-22.2c19.114-16.088,33.818-15.242,56.5-6.972C88.369-23.287,112.54-4.6,129.762-11.26c26.133-10.094,46.6-34,74.343-40.117,40.853-9,96.1,9,77.853,59.262-11.3,31.138,2.12,46.73,19.6,73.838C310.9,96.214,311.18,102.559,301.968,117.24Z"/>
</svg>
